<svg xmlns="http://www.w3.org/2000/svg" viewBox="0 0 32 32" width="32" height="32">
  <!-- Background circle -->
  <circle cx="16" cy="16" r="16" fill="#1a1a1a"/>
  
  <!-- Plant stem -->
  <rect x="15" y="18" width="2" height="8" fill="#4ade80" rx="1"/>
  
  <!-- Main leaf -->
  <path d="M16 18 C12 14, 8 12, 6 8 C8 10, 12 12, 16 16" fill="#22c55e"/>
  
  <!-- Second leaf -->
  <path d="M16 16 C20 12, 24 10, 26 6 C24 8, 20 10, 16 14" fill="#16a34a"/>
  
  <!-- Small leaf -->
  <path d="M16 20 C14 18, 12 17, 10 15 C11 16, 13 17, 16 19" fill="#15803d"/>
  
  <!-- Growth dots/seeds -->
  <circle cx="8" cy="10" r="1" fill="#84cc16"/>
  <circle cx="24" cy="8" r="1" fill="#84cc16"/>
  <circle cx="12" cy="17" r="0.5" fill="#84cc16"/>
  
  <!-- AI circuit pattern -->
  <path d="M16 4 L18 6 L16 8 L14 6 Z" fill="#00ff00" opacity="0.7"/>
  <circle cx="16" cy="6" r="1" fill="#ffffff"/>
</svg>